<?xml version="1.0" standalone="no"?>
<!DOCTYPE svg PUBLIC "-//W3C//DTD SVG 20010904//EN"
 "http://www.w3.org/TR/2001/REC-SVG-20010904/DTD/svg10.dtd">
<svg version="1.0" xmlns="http://www.w3.org/2000/svg"
 width="248.000000pt" height="248.000000pt" viewBox="0 0 248.000000 248.000000"
 preserveAspectRatio="xMidYMid meet">
<metadata>
Created by potrace 1.11, written by Peter Selinger 2001-2013
</metadata>
<g transform="translate(0.000000,248.000000) scale(0.100000,-0.100000)"
fill="#000000" stroke="none">
<path d="M1093 2432 c1 -4 -46 -64 -104 -132 -58 -69 -167 -198 -242 -288
l-136 -163 216 -302 c118 -166 219 -307 223 -312 7 -8 -235 -298 -540 -645
-147 -168 -490 -570 -490 -575 0 -3 150 -4 332 -3 l333 3 165 201 c91 111 307
374 481 586 174 211 322 393 329 405 12 19 9 27 -25 74 -319 444 -398 556
-399 566 -1 6 98 139 219 294 121 155 222 286 223 291 2 4 -129 8 -292 8 -163
0 -295 -3 -293 -8z"/>
<path d="M1881 2420 c-22 -16 -316 -364 -316 -374 0 -17 268 -375 280 -375 6
0 56 57 111 127 125 157 300 374 412 510 46 57 82 105 80 107 -6 6 -559 11
-567 5z"/>
<path d="M1551 725 c-99 -102 -181 -190 -181 -195 0 -8 90 -123 313 -397 l99
-123 283 0 c156 0 286 3 288 8 3 4 -16 36 -42 72 -26 36 -68 94 -92 130 -25
36 -90 128 -144 204 -54 77 -98 146 -98 152 0 7 -3 11 -7 9 -4 -2 -31 30 -61
73 -29 42 -81 116 -115 165 l-61 87 -182 -185z"/>
</g>
</svg>
